<?xml version="1.0" encoding="utf-8"?>
<!-- Generator: Adobe Illustrator 19.0.0, SVG Export Plug-In . SVG Version: 6.00 Build 0)  -->
<svg version="1.1" id="Layer_1" xmlns="http://www.w3.org/2000/svg" xmlns:xlink="http://www.w3.org/1999/xlink" x="0px" y="0px"
	 viewBox="0 0 100 100" style="enable-background:new 0 0 100 100;" xml:space="preserve">
<style type="text/css">
	.st0{fill:#15B1CF;}
	.st1{fill:#3E3E6B;}
	.st2{fill:#FFFFFF;}
</style>
<g id="XMLID_7_">
	<g id="XMLID_11_">
		<g id="XMLID_13_">
			<path id="XMLID_15_" class="st0" d="M32.9,17.8c-12.5,0-22.6,10.1-22.6,22.6C10.2,52.9,24.3,71,49,79.7V24.4
				C44.9,20.3,39.1,17.8,32.9,17.8z"/>
			<path id="XMLID_14_" class="st1" d="M65.2,17.8c-6.3,0-12,2.5-16.1,6.6v55.2C73.7,71,87.8,52.9,87.8,40.4
				C87.8,27.9,77.7,17.8,65.2,17.8z"/>
		</g>
		<polygon id="XMLID_12_" class="st2" points="67.4,42.3 56.9,42.3 56.9,31.8 41.4,31.8 41.4,42.3 30.9,42.3 30.9,57.8 41.4,57.8 
			41.4,68.3 56.9,68.3 56.9,57.8 67.4,57.8 		"/>
	</g>
	<path id="XMLID_8_" class="st1" d="M89.6,26.7c0.7,0.5,1.3,1,1.6,1.7c2.5,6-14.5,18.8-37.9,28.6c-23.5,9.8-44.5,12.8-47,6.7
		C6,63,5.9,62.2,6.2,61.4c-3.9,3.9-5.7,7.2-4.6,9.6c2.9,6.9,27.2,3.3,54.3-8c27.1-11.3,46.8-26,43.9-32.9
		C98.7,27.8,95.1,26.6,89.6,26.7z"/>
</g>
<g id="XMLID_3_">
	<g id="XMLID_4_">
	</g>
</g>
</svg>
